<svg width="23" height="21" viewBox="0 0 23 21" fill="none" xmlns="http://www.w3.org/2000/svg">
<path fill-rule="evenodd" clip-rule="evenodd" d="M3.09244 0.669629C3.33302 0.44031 3.62191 0.262418 3.93996 0.147742C4.25801 0.033066 4.59796 -0.0157757 4.93727 0.0044538C5.27659 0.0246833 5.60753 0.113522 5.90816 0.265082C6.2088 0.416643 6.47225 0.627465 6.68108 0.883577L9.14913 3.91034C9.60149 4.46555 9.76098 5.18877 9.58224 5.87131L8.83014 8.74581C8.79125 8.8947 8.79335 9.05065 8.83623 9.19853C8.87912 9.34641 8.96133 9.48119 9.07488 9.58979L12.4531 12.8147C12.567 12.9234 12.7085 13.002 12.8636 13.0429C13.0188 13.0839 13.1825 13.0857 13.3386 13.0484L16.3484 12.3304C16.7012 12.2462 17.0695 12.2397 17.4254 12.3113C17.7812 12.3829 18.1154 12.5308 18.4026 12.7439L21.5732 15.0986C22.7131 15.9452 22.8176 17.5531 21.7974 18.5257L20.3756 19.8829C19.3582 20.8542 17.8375 21.2808 16.4199 20.8043C12.7916 19.5856 9.49736 17.6028 6.78145 15.0028C4.05806 12.4105 1.98094 9.26619 0.704141 5.80305C0.206407 4.45112 0.653268 2.99811 1.67074 2.02682L3.09244 0.669629Z" fill="white"/>
</svg>
