<svg width="69" height="69" viewBox="0 0 69 69" fill="none" xmlns="http://www.w3.org/2000/svg">
<path d="M34.5016 0C15.4771 0 0.000854492 15.4755 0.000854492 34.4986C0.000854492 53.523 15.4778 69 34.5009 69C53.5232 69 68.9987 53.523 68.9987 34.4986C68.9994 15.4762 53.5239 0 34.5016 0ZM3.4824 34.4986C3.4824 30.0025 4.44671 25.7323 6.16812 21.8758L20.9647 62.4155C10.6183 57.3867 3.4824 46.7765 3.4824 34.4986ZM34.5016 65.5192C31.4567 65.5192 28.5178 65.0725 25.7389 64.2552L35.045 37.2122L44.5813 63.3332C44.6429 63.4873 44.7182 63.6278 44.8021 63.7605C41.5779 64.8947 38.1136 65.5192 34.5016 65.5192ZM38.7754 19.9558C40.6423 19.8576 42.3264 19.6604 42.3264 19.6604C43.997 19.4625 43.8012 17.007 42.1278 17.1052C42.1278 17.1052 37.1041 17.4988 33.8599 17.4988C30.8128 17.4988 25.6894 17.1052 25.6894 17.1052C24.0175 17.007 23.8225 19.5622 25.4937 19.6604C25.4937 19.6604 27.0768 19.8576 28.7466 19.9558L33.5788 33.1973L26.7907 53.5553L15.4972 19.9565C17.367 19.859 19.0476 19.6611 19.0476 19.6611C20.7181 19.464 20.5209 17.007 18.8482 17.1073C18.8482 17.1073 13.8267 17.5009 10.5817 17.5009C9.99883 17.5009 9.3127 17.4859 8.5857 17.4637C14.1307 9.04155 23.6655 3.48155 34.5016 3.48155C42.5781 3.48155 49.9298 6.56876 55.4475 11.624C55.3134 11.6169 55.1837 11.5989 55.0446 11.5989C51.9989 11.5989 49.8366 14.2531 49.8366 17.1045C49.8366 19.6597 51.3099 21.8235 52.8822 24.3787C54.063 26.445 55.4396 29.0999 55.4396 32.9334C55.4396 35.5891 54.4201 38.6691 53.0787 42.9608L49.985 53.3001L38.7754 19.9558ZM50.0947 61.3113L59.5693 33.9178C61.3409 29.4935 61.9281 25.9553 61.9281 22.8071C61.9281 21.6665 61.8535 20.6061 61.7187 19.6174C64.142 24.036 65.5207 29.107 65.5193 34.5C65.5186 45.9426 59.3155 55.9342 50.0947 61.3113Z" fill="black"/>
</svg>
